<svg xmlns="http://www.w3.org/2000/svg" viewBox="0 0 1002 552"><g id="レイヤー_2" data-name="レイヤー 2"><g id="レイヤー_1-2" data-name="レイヤー 1"><path d="M1002,182c0-79.5-123.6-144-276-144a508.2,508.2,0,0,0-92.7,8.3C597.8,18.4,536.8,0,467.5,0,414.8,0,366.9,10.7,331.3,28.1,204.1,30.4,102,98.2,102,181.5c0,33.4,16.5,64.4,44.4,89.6C60,294.2,0,345.5,0,405c0,81.2,111.7,147,249.5,147,88.6,0,166.3-27.2,210.6-68.2,34.2,16.5,76.5,26.2,122.4,26.2C696,510,788,450.5,788,377c0-18.8-6-36.7-16.9-52.9C902.1,312.9,1002,253.5,1002,182Z" style="fill:#4d4d4d"/></g></g></svg>